<!-- SPDX-License-Identifier: AGPL-3.0-or-later -->
<svg xmlns="http://www.w3.org/2000/svg" viewBox="0 0 33.87 33.87"><g transform="translate(-32.28 -138.64)"><circle cx="49.21" cy="155.57" r="15.74" fill="none" stroke="currentColor" stroke-width=".26" opacity=".2" style="marker:none"/><path fill="#4641D9" d="M65.09 155.57a15.87 15.87 0 1 0-31.75 0 15.87 15.87 0 0 0 31.75 0z"/><path fill="#fff" d="M40.84 154.16c-.83 0-1.53-.68-1.42-1.5.1-.9.34-1.66.69-2.29a5 5 0 0 1 2.1-2.08 6.07 6.07 0 0 1 2.74-.65c.97 0 1.84.21 2.63.65a17 17 0 0 1 2.76 1.96c.7.6 1.26 1.02 1.66 1.28.41.24.88.36 1.4.36.82 0 1.47-.29 1.94-.88.23-.28.4-.62.52-1.03a1.9 1.9 0 0 1 1.73-1.57c.83 0 1.53.66 1.43 1.5a7.5 7.5 0 0 1-.69 2.3 5 5 0 0 1-2.12 2.08c-.87.43-1.79.65-2.75.65-.98 0-1.86-.21-2.65-.62a17.3 17.3 0 0 1-2.75-2c-.69-.6-1.24-1.02-1.67-1.27a2.71 2.71 0 0 0-1.4-.38c-.77 0-1.4.27-1.9.8-.26.27-.45.65-.57 1.12a1.86 1.86 0 0 1-1.68 1.57Zm0 8.64c-.83 0-1.53-.68-1.42-1.5.1-.9.34-1.67.69-2.3a5 5 0 0 1 2.1-2.08 6.07 6.07 0 0 1 2.74-.65c.97 0 1.84.22 2.63.65a17 17 0 0 1 2.76 1.96c.7.6 1.26 1.03 1.66 1.28.41.25.88.37 1.4.37.82 0 1.47-.3 1.94-.89.23-.28.4-.62.52-1.03a1.9 1.9 0 0 1 1.73-1.57c.83 0 1.53.67 1.43 1.5a7.5 7.5 0 0 1-.69 2.3 5 5 0 0 1-2.12 2.08c-.87.44-1.79.66-2.75.66-.98 0-1.86-.21-2.65-.62a17.3 17.3 0 0 1-2.75-2c-.69-.6-1.24-1.03-1.67-1.27a2.71 2.71 0 0 0-1.4-.39c-.77 0-1.4.27-1.9.8-.26.28-.45.65-.57 1.12a1.86 1.86 0 0 1-1.68 1.57z"/></g></svg>
